<svg width="276" height="102" viewBox="0 0 276 102" fill="none" xmlns="http://www.w3.org/2000/svg">
<rect x="2.5" y="2.5" width="271" height="97" rx="16.5" stroke="url(#paint0_radial_111_15)" stroke-opacity="0.7" stroke-width="5"/>
<path d="M79.9716 43.1307C79.8352 41.7557 79.25 40.6875 78.2159 39.9261C77.1818 39.1648 75.7784 38.7841 74.0057 38.7841C72.8011 38.7841 71.7841 38.9545 70.9545 39.2955C70.125 39.625 69.4886 40.0852 69.0455 40.6761C68.6136 41.267 68.3977 41.9375 68.3977 42.6875C68.375 43.3125 68.5057 43.858 68.7898 44.3239C69.0852 44.7898 69.4886 45.1932 70 45.5341C70.5114 45.8636 71.1023 46.1534 71.7727 46.4034C72.4432 46.642 73.1591 46.8466 73.9205 47.017L77.0568 47.767C78.5795 48.108 79.9773 48.5625 81.25 49.1307C82.5227 49.6989 83.625 50.3977 84.5568 51.2273C85.4886 52.0568 86.2102 53.0341 86.7216 54.1591C87.2443 55.2841 87.5114 56.5739 87.5227 58.0284C87.5114 60.1648 86.9659 62.017 85.8864 63.5852C84.8182 65.142 83.2727 66.3523 81.25 67.2159C79.2386 68.0682 76.8125 68.4943 73.9716 68.4943C71.1534 68.4943 68.6989 68.0625 66.608 67.1989C64.5284 66.3352 62.9034 65.0568 61.733 63.3636C60.5739 61.6591 59.9659 59.5511 59.9091 57.0398H67.0511C67.1307 58.2102 67.4659 59.1875 68.0568 59.9716C68.6591 60.7443 69.4602 61.3295 70.4602 61.7273C71.4716 62.1136 72.6136 62.3068 73.8864 62.3068C75.1364 62.3068 76.2216 62.125 77.142 61.7614C78.0739 61.3977 78.7955 60.892 79.3068 60.2443C79.8182 59.5966 80.0739 58.8523 80.0739 58.0114C80.0739 57.2273 79.8409 56.5682 79.375 56.0341C78.9205 55.5 78.25 55.0455 77.3636 54.6705C76.4886 54.2955 75.4148 53.9545 74.142 53.6477L70.3409 52.6932C67.3977 51.9773 65.0739 50.858 63.3693 49.3352C61.6648 47.8125 60.8182 45.7614 60.8295 43.1818C60.8182 41.0682 61.3807 39.2216 62.517 37.642C63.6648 36.0625 65.2386 34.8295 67.2386 33.9432C69.2386 33.0568 71.5114 32.6136 74.0568 32.6136C76.6477 32.6136 78.9091 33.0568 80.8409 33.9432C82.7841 34.8295 84.2955 36.0625 85.375 37.642C86.4545 39.2216 87.0114 41.0511 87.0455 43.1307H79.9716ZM92.3509 68V41.8182H99.6122V68H92.3509ZM95.9986 38.4432C94.919 38.4432 93.9929 38.0852 93.2202 37.3693C92.4588 36.642 92.0781 35.7727 92.0781 34.7614C92.0781 33.7614 92.4588 32.9034 93.2202 32.1875C93.9929 31.4602 94.919 31.0966 95.9986 31.0966C97.0781 31.0966 97.9986 31.4602 98.7599 32.1875C99.5327 32.9034 99.919 33.7614 99.919 34.7614C99.919 35.7727 99.5327 36.642 98.7599 37.3693C97.9986 38.0852 97.0781 38.4432 95.9986 38.4432ZM117.224 78.3636C114.872 78.3636 112.855 78.0398 111.173 77.392C109.503 76.7557 108.173 75.8864 107.185 74.7841C106.196 73.6818 105.554 72.4432 105.259 71.0682L111.974 70.1648C112.179 70.6875 112.503 71.1761 112.946 71.6307C113.389 72.0852 113.974 72.4489 114.702 72.7216C115.44 73.0057 116.338 73.1477 117.395 73.1477C118.974 73.1477 120.276 72.7614 121.298 71.9886C122.332 71.2273 122.849 69.9489 122.849 68.1534V63.3636H122.543C122.224 64.0909 121.747 64.7784 121.111 65.4261C120.474 66.0739 119.656 66.6023 118.656 67.0114C117.656 67.4205 116.463 67.625 115.077 67.625C113.111 67.625 111.321 67.1705 109.707 66.2614C108.105 65.3409 106.827 63.9375 105.872 62.0511C104.929 60.1534 104.457 57.7557 104.457 54.858C104.457 51.892 104.94 49.4148 105.906 47.4261C106.872 45.4375 108.156 43.9489 109.759 42.9602C111.372 41.9716 113.139 41.4773 115.06 41.4773C116.526 41.4773 117.753 41.7273 118.741 42.2273C119.73 42.7159 120.526 43.3295 121.128 44.0682C121.741 44.7955 122.213 45.5114 122.543 46.2159H122.815V41.8182H130.026V68.2557C130.026 70.483 129.48 72.3466 128.389 73.8466C127.298 75.3466 125.787 76.4716 123.855 77.2216C121.935 77.983 119.724 78.3636 117.224 78.3636ZM117.378 62.1705C118.548 62.1705 119.537 61.8807 120.344 61.3011C121.162 60.7102 121.787 59.8693 122.219 58.7784C122.662 57.6761 122.884 56.358 122.884 54.8239C122.884 53.2898 122.668 51.9602 122.236 50.8352C121.804 49.6989 121.179 48.8182 120.361 48.1932C119.543 47.5682 118.548 47.2557 117.378 47.2557C116.185 47.2557 115.179 47.5795 114.361 48.2273C113.543 48.8636 112.923 49.75 112.503 50.8864C112.082 52.0227 111.872 53.3352 111.872 54.8239C111.872 56.3352 112.082 57.642 112.503 58.7443C112.935 59.8352 113.554 60.6818 114.361 61.2841C115.179 61.875 116.185 62.1705 117.378 62.1705ZM143.065 52.8636V68H135.804V41.8182H142.724V46.4375H143.031C143.611 44.9148 144.582 43.7102 145.946 42.8239C147.31 41.9261 148.963 41.4773 150.906 41.4773C152.724 41.4773 154.31 41.875 155.662 42.6705C157.014 43.4659 158.065 44.6023 158.815 46.0795C159.565 47.5455 159.94 49.2955 159.94 51.3295V68H152.679V52.625C152.69 51.0227 152.281 49.7727 151.452 48.875C150.622 47.9659 149.48 47.5114 148.026 47.5114C147.048 47.5114 146.185 47.7216 145.435 48.142C144.696 48.5625 144.116 49.1761 143.696 49.983C143.287 50.7784 143.077 51.7386 143.065 52.8636ZM176.773 68V41.8182H184.034V68H176.773ZM180.42 38.4432C179.341 38.4432 178.415 38.0852 177.642 37.3693C176.881 36.642 176.5 35.7727 176.5 34.7614C176.5 33.7614 176.881 32.9034 177.642 32.1875C178.415 31.4602 179.341 31.0966 180.42 31.0966C181.5 31.0966 182.42 31.4602 183.182 32.1875C183.955 32.9034 184.341 33.7614 184.341 34.7614C184.341 35.7727 183.955 36.642 183.182 37.3693C182.42 38.0852 181.5 38.4432 180.42 38.4432ZM197.112 52.8636V68H189.851V41.8182H196.771V46.4375H197.078C197.658 44.9148 198.629 43.7102 199.993 42.8239C201.357 41.9261 203.01 41.4773 204.953 41.4773C206.771 41.4773 208.357 41.875 209.709 42.6705C211.061 43.4659 212.112 44.6023 212.862 46.0795C213.612 47.5455 213.987 49.2955 213.987 51.3295V68H206.726V52.625C206.737 51.0227 206.328 49.7727 205.499 48.875C204.669 47.9659 203.527 47.5114 202.072 47.5114C201.095 47.5114 200.232 47.7216 199.482 48.142C198.743 48.5625 198.163 49.1761 197.743 49.983C197.334 50.7784 197.124 51.7386 197.112 52.8636Z" fill="url(#paint1_linear_111_15)"/>
<defs>
<radialGradient id="paint0_radial_111_15" cx="0" cy="0" r="1" gradientUnits="userSpaceOnUse" gradientTransform="translate(138 51) rotate(-112.749) scale(184.34 662.522)">
<stop stop-color="#7C1FC4"/>
<stop offset="1" stop-color="#21A0B6"/>
</radialGradient>
<linearGradient id="paint1_linear_111_15" x1="137.5" y1="22" x2="137.5" y2="80" gradientUnits="userSpaceOnUse">
<stop offset="0.470065" stop-color="#7C1FC4"/>
<stop offset="1" stop-color="#21A0B6"/>
</linearGradient>
</defs>
</svg>
