<svg width="205" height="157" viewBox="0 0 205 157" fill="none" xmlns="http://www.w3.org/2000/svg">
<path d="M95.5 81L95.5 138C95.5 147.113 102.887 154.5 112 154.5H186C195.113 154.5 202.5 147.113 202.5 138V81C202.5 71.8873 195.113 64.5 186 64.5L112 64.5C102.887 64.5 95.5 71.8873 95.5 81Z" stroke="url(#paint0_radial_109_13)" stroke-opacity="0.7" stroke-width="5"/>
<path d="M44.5 19L44.5 76C44.5 85.1127 51.8873 92.5 61 92.5L135 92.5C144.113 92.5 151.5 85.1127 151.5 76V19C151.5 9.8873 144.113 2.5 135 2.5L61 2.5C51.8873 2.5 44.5 9.8873 44.5 19Z" stroke="url(#paint1_radial_109_13)" stroke-opacity="0.7" stroke-width="5"/>
<path d="M3.03409 51V16.0909H26.1477V22.1761H10.4148V30.4943H24.6136V36.5795H10.4148V51H3.03409ZM30.9759 51V24.8182H38.2372V51H30.9759ZM34.6236 21.4432C33.544 21.4432 32.6179 21.0852 31.8452 20.3693C31.0838 19.642 30.7031 18.7727 30.7031 17.7614C30.7031 16.7614 31.0838 15.9034 31.8452 15.1875C32.6179 14.4602 33.544 14.0966 34.6236 14.0966C35.7031 14.0966 36.6236 14.4602 37.3849 15.1875C38.1577 15.9034 38.544 16.7614 38.544 17.7614C38.544 18.7727 38.1577 19.642 37.3849 20.3693C36.6236 21.0852 35.7031 21.4432 34.6236 21.4432ZM57.9801 24.8182V30.2727H42.2131V24.8182H57.9801ZM45.7926 18.5455H53.054V42.9545C53.054 43.625 53.1563 44.1477 53.3608 44.5227C53.5653 44.8864 53.8494 45.142 54.2131 45.2898C54.5881 45.4375 55.0199 45.5114 55.5085 45.5114C55.8494 45.5114 56.1903 45.483 56.5312 45.4261C56.8722 45.358 57.1335 45.3068 57.3153 45.2727L58.4574 50.6761C58.0938 50.7898 57.5824 50.9205 56.9233 51.0682C56.2642 51.2273 55.4631 51.3239 54.5199 51.358C52.7699 51.4261 51.2358 51.1932 49.9176 50.6591C48.6108 50.125 47.5938 49.2955 46.8665 48.1705C46.1392 47.0455 45.7813 45.625 45.7926 43.9091V18.5455ZM69.9716 35.8636V51H62.7102V24.8182H69.6307V29.4375H69.9375C70.517 27.9148 71.4886 26.7102 72.8523 25.8239C74.2159 24.9261 75.8693 24.4773 77.8125 24.4773C79.6307 24.4773 81.2159 24.875 82.5682 25.6705C83.9205 26.4659 84.9716 27.6023 85.7216 29.0795C86.4716 30.5455 86.8466 32.2955 86.8466 34.3295V51H79.5852V35.625C79.5966 34.0227 79.1875 32.7727 78.358 31.875C77.5284 30.9659 76.3864 30.5114 74.9318 30.5114C73.9545 30.5114 73.0909 30.7216 72.3409 31.142C71.6023 31.5625 71.0227 32.1761 70.6023 32.983C70.1932 33.7784 69.983 34.7386 69.9716 35.8636ZM104.501 51.5114C101.808 51.5114 99.4901 50.9659 97.5469 49.875C95.6151 48.7727 94.1264 47.2159 93.081 45.2045C92.0355 43.1818 91.5128 40.7898 91.5128 38.0284C91.5128 35.3352 92.0355 32.9716 93.081 30.9375C94.1264 28.9034 95.598 27.3182 97.4957 26.1818C99.4048 25.0455 101.643 24.4773 104.212 24.4773C105.939 24.4773 107.547 24.7557 109.036 25.3125C110.536 25.858 111.842 26.6818 112.956 27.7841C114.081 28.8864 114.956 30.2727 115.581 31.9432C116.206 33.6023 116.518 35.5455 116.518 37.7727V39.767H94.4105V35.267H109.683C109.683 34.2216 109.456 33.2955 109.001 32.4886C108.547 31.6818 107.916 31.0511 107.109 30.5966C106.314 30.1307 105.388 29.8977 104.331 29.8977C103.229 29.8977 102.251 30.1534 101.399 30.6648C100.558 31.1648 99.8991 31.8409 99.4219 32.6932C98.9446 33.5341 98.7003 34.4716 98.6889 35.5057V39.7841C98.6889 41.0795 98.9276 42.1989 99.4048 43.142C99.8935 44.0852 100.581 44.8125 101.467 45.3239C102.354 45.8352 103.405 46.0909 104.621 46.0909C105.428 46.0909 106.166 45.9773 106.837 45.75C107.507 45.5227 108.081 45.1818 108.558 44.7273C109.036 44.2727 109.399 43.7159 109.649 43.0568L116.365 43.5C116.024 45.1136 115.325 46.5227 114.268 47.7273C113.223 48.9205 111.871 49.8523 110.212 50.5227C108.564 51.1818 106.661 51.5114 104.501 51.5114ZM143.041 32.2841L136.393 32.6932C136.28 32.125 136.036 31.6136 135.661 31.1591C135.286 30.6932 134.791 30.3239 134.178 30.0511C133.575 29.767 132.854 29.625 132.013 29.625C130.888 29.625 129.939 29.8636 129.166 30.3409C128.393 30.8068 128.007 31.4318 128.007 32.2159C128.007 32.8409 128.257 33.3693 128.757 33.8011C129.257 34.233 130.115 34.5795 131.331 34.8409L136.07 35.7955C138.615 36.3182 140.513 37.1591 141.763 38.3182C143.013 39.4773 143.638 41 143.638 42.8864C143.638 44.6023 143.132 46.108 142.121 47.4034C141.121 48.6989 139.746 49.7102 137.996 50.4375C136.257 51.1534 134.251 51.5114 131.979 51.5114C128.513 51.5114 125.751 50.7898 123.695 49.3466C121.649 47.892 120.45 45.9148 120.098 43.4148L127.24 43.0398C127.456 44.0966 127.979 44.9034 128.808 45.4602C129.638 46.0057 130.7 46.2784 131.996 46.2784C133.268 46.2784 134.291 46.0341 135.064 45.5455C135.848 45.0455 136.246 44.4034 136.257 43.6193C136.246 42.9602 135.967 42.4205 135.422 42C134.876 41.5682 134.036 41.2386 132.899 41.0114L128.365 40.108C125.808 39.5966 123.905 38.7102 122.655 37.4489C121.416 36.1875 120.797 34.5795 120.797 32.625C120.797 30.9432 121.251 29.4943 122.161 28.2784C123.081 27.0625 124.371 26.125 126.03 25.4659C127.7 24.8068 129.655 24.4773 131.893 24.4773C135.2 24.4773 137.803 25.1761 139.7 26.5739C141.609 27.9716 142.723 29.875 143.041 32.2841ZM169.994 32.2841L163.347 32.6932C163.233 32.125 162.989 31.6136 162.614 31.1591C162.239 30.6932 161.744 30.3239 161.131 30.0511C160.528 29.767 159.807 29.625 158.966 29.625C157.841 29.625 156.892 29.8636 156.119 30.3409C155.347 30.8068 154.96 31.4318 154.96 32.2159C154.96 32.8409 155.21 33.3693 155.71 33.8011C156.21 34.233 157.068 34.5795 158.284 34.8409L163.023 35.7955C165.568 36.3182 167.466 37.1591 168.716 38.3182C169.966 39.4773 170.591 41 170.591 42.8864C170.591 44.6023 170.085 46.108 169.074 47.4034C168.074 48.6989 166.699 49.7102 164.949 50.4375C163.21 51.1534 161.205 51.5114 158.932 51.5114C155.466 51.5114 152.705 50.7898 150.648 49.3466C148.602 47.892 147.403 45.9148 147.051 43.4148L154.193 43.0398C154.409 44.0966 154.932 44.9034 155.761 45.4602C156.591 46.0057 157.653 46.2784 158.949 46.2784C160.222 46.2784 161.244 46.0341 162.017 45.5455C162.801 45.0455 163.199 44.4034 163.21 43.6193C163.199 42.9602 162.92 42.4205 162.375 42C161.83 41.5682 160.989 41.2386 159.852 41.0114L155.318 40.108C152.761 39.5966 150.858 38.7102 149.608 37.4489C148.369 36.1875 147.75 34.5795 147.75 32.625C147.75 30.9432 148.205 29.4943 149.114 28.2784C150.034 27.0625 151.324 26.125 152.983 25.4659C154.653 24.8068 156.608 24.4773 158.847 24.4773C162.153 24.4773 164.756 25.1761 166.653 26.5739C168.563 27.9716 169.676 29.875 169.994 32.2841ZM1.70455 80.1761V74.0909H30.375V80.1761H19.6875V109H12.392V80.1761H1.70455ZM32.2415 109V82.8182H39.2812V87.3864H39.554C40.0313 85.7614 40.8324 84.5341 41.9574 83.7045C43.0824 82.8636 44.3778 82.4432 45.8438 82.4432C46.2074 82.4432 46.5994 82.4659 47.0199 82.5114C47.4403 82.5568 47.8097 82.6193 48.1278 82.6989V89.142C47.7869 89.0398 47.3153 88.9489 46.7131 88.8693C46.1108 88.7898 45.5597 88.75 45.0597 88.75C43.9915 88.75 43.0369 88.983 42.196 89.4489C41.3665 89.9034 40.7074 90.5398 40.2188 91.358C39.7415 92.1761 39.5028 93.1193 39.5028 94.1875V109H32.2415ZM58.598 109.494C56.9276 109.494 55.4389 109.205 54.1321 108.625C52.8253 108.034 51.7912 107.165 51.0298 106.017C50.2798 104.858 49.9048 103.415 49.9048 101.688C49.9048 100.233 50.1719 99.0114 50.706 98.0227C51.2401 97.0341 51.9673 96.2386 52.8878 95.6364C53.8082 95.0341 54.8537 94.5795 56.0241 94.2727C57.206 93.9659 58.4446 93.75 59.7401 93.625C61.2628 93.4659 62.4901 93.3182 63.4219 93.1818C64.3537 93.0341 65.0298 92.8182 65.4503 92.5341C65.8707 92.25 66.081 91.8295 66.081 91.2727V91.1705C66.081 90.0909 65.7401 89.2557 65.0582 88.6648C64.3878 88.0739 63.4332 87.7784 62.1946 87.7784C60.8878 87.7784 59.848 88.0682 59.0753 88.6477C58.3026 89.2159 57.7912 89.9318 57.5412 90.7955L50.8253 90.25C51.1662 88.6591 51.8366 87.2841 52.8366 86.125C53.8366 84.9545 55.1264 84.0568 56.706 83.4318C58.2969 82.7955 60.1378 82.4773 62.2287 82.4773C63.6832 82.4773 65.0753 82.6477 66.4048 82.9886C67.7457 83.3295 68.9332 83.858 69.9673 84.5739C71.0128 85.2898 71.8366 86.2102 72.4389 87.3352C73.0412 88.4489 73.3423 89.7841 73.3423 91.3409V109H66.456V105.369H66.2514C65.831 106.188 65.2685 106.909 64.5639 107.534C63.8594 108.148 63.0128 108.631 62.0241 108.983C61.0355 109.324 59.8935 109.494 58.598 109.494ZM60.6776 104.483C61.7457 104.483 62.6889 104.273 63.5071 103.852C64.3253 103.42 64.9673 102.841 65.4332 102.114C65.8991 101.386 66.1321 100.562 66.1321 99.642V96.8636C65.9048 97.0114 65.5923 97.1477 65.1946 97.2727C64.8082 97.3864 64.3707 97.4943 63.8821 97.5966C63.3935 97.6875 62.9048 97.7727 62.4162 97.8523C61.9276 97.9205 61.4844 97.983 61.0866 98.0398C60.2344 98.1648 59.4901 98.3636 58.8537 98.6364C58.2173 98.9091 57.723 99.2784 57.3707 99.7443C57.0185 100.199 56.8423 100.767 56.8423 101.449C56.8423 102.438 57.2003 103.193 57.9162 103.716C58.6435 104.227 59.5639 104.483 60.6776 104.483ZM78.9759 109V82.8182H86.2372V109H78.9759ZM82.6236 79.4432C81.544 79.4432 80.6179 79.0852 79.8452 78.3693C79.0838 77.642 78.7031 76.7727 78.7031 75.7614C78.7031 74.7614 79.0838 73.9034 79.8452 73.1875C80.6179 72.4602 81.544 72.0966 82.6236 72.0966C83.7031 72.0966 84.6236 72.4602 85.3849 73.1875C86.1577 73.9034 86.544 74.7614 86.544 75.7614C86.544 76.7727 86.1577 77.642 85.3849 78.3693C84.6236 79.0852 83.7031 79.4432 82.6236 79.4432ZM99.3153 93.8636V109H92.054V82.8182H98.9744V87.4375H99.2812C99.8608 85.9148 100.832 84.7102 102.196 83.8239C103.56 82.9261 105.213 82.4773 107.156 82.4773C108.974 82.4773 110.56 82.875 111.912 83.6705C113.264 84.4659 114.315 85.6023 115.065 87.0795C115.815 88.5455 116.19 90.2955 116.19 92.3295V109H108.929V93.625C108.94 92.0227 108.531 90.7727 107.702 89.875C106.872 88.9659 105.73 88.5114 104.276 88.5114C103.298 88.5114 102.435 88.7216 101.685 89.142C100.946 89.5625 100.366 90.1761 99.946 90.983C99.5369 91.7784 99.3267 92.7386 99.3153 93.8636ZM133.845 109.511C131.152 109.511 128.834 108.966 126.891 107.875C124.959 106.773 123.47 105.216 122.425 103.205C121.379 101.182 120.857 98.7898 120.857 96.0284C120.857 93.3352 121.379 90.9716 122.425 88.9375C123.47 86.9034 124.942 85.3182 126.839 84.1818C128.749 83.0455 130.987 82.4773 133.555 82.4773C135.283 82.4773 136.891 82.7557 138.379 83.3125C139.879 83.858 141.186 84.6818 142.3 85.7841C143.425 86.8864 144.3 88.2727 144.925 89.9432C145.55 91.6023 145.862 93.5455 145.862 95.7727V97.767H123.754V93.267H139.027C139.027 92.2216 138.8 91.2955 138.345 90.4886C137.891 89.6818 137.26 89.0511 136.453 88.5966C135.658 88.1307 134.732 87.8977 133.675 87.8977C132.572 87.8977 131.595 88.1534 130.743 88.6648C129.902 89.1648 129.243 89.8409 128.766 90.6932C128.288 91.5341 128.044 92.4716 128.033 93.5057V97.7841C128.033 99.0795 128.271 100.199 128.749 101.142C129.237 102.085 129.925 102.812 130.811 103.324C131.697 103.835 132.749 104.091 133.964 104.091C134.771 104.091 135.51 103.977 136.18 103.75C136.851 103.523 137.425 103.182 137.902 102.727C138.379 102.273 138.743 101.716 138.993 101.057L145.709 101.5C145.368 103.114 144.669 104.523 143.612 105.727C142.567 106.92 141.214 107.852 139.555 108.523C137.908 109.182 136.004 109.511 133.845 109.511ZM150.601 109V82.8182H157.641V87.3864H157.913C158.391 85.7614 159.192 84.5341 160.317 83.7045C161.442 82.8636 162.737 82.4432 164.203 82.4432C164.567 82.4432 164.959 82.4659 165.379 82.5114C165.8 82.5568 166.169 82.6193 166.487 82.6989V89.142C166.146 89.0398 165.675 88.9489 165.072 88.8693C164.47 88.7898 163.919 88.75 163.419 88.75C162.351 88.75 161.396 88.983 160.555 89.4489C159.726 89.9034 159.067 90.5398 158.578 91.358C158.101 92.1761 157.862 93.1193 157.862 94.1875V109H150.601Z" fill="url(#paint2_angular_109_13)"/>
<defs>
<radialGradient id="paint0_radial_109_13" cx="0" cy="0" r="1" gradientUnits="userSpaceOnUse" gradientTransform="translate(138.873 100.343) rotate(173.109) scale(189.85 227.908)">
<stop stop-color="#7C1FC4" stop-opacity="0.37"/>
<stop offset="1" stop-color="#21A0B6"/>
</radialGradient>
<radialGradient id="paint1_radial_109_13" cx="0" cy="0" r="1" gradientUnits="userSpaceOnUse" gradientTransform="translate(87.8734 38.3425) rotate(173.109) scale(189.85 227.908)">
<stop stop-color="#7C1FC4" stop-opacity="0.37"/>
<stop offset="1" stop-color="#21A0B6"/>
</radialGradient>
<radialGradient id="paint2_angular_109_13" cx="0" cy="0" r="1" gradientUnits="userSpaceOnUse" gradientTransform="translate(86.5 63) rotate(90) scale(58 86.5)">
<stop offset="0.0382531" stop-color="#21A0B6"/>
<stop offset="0.64715" stop-color="#7C1FC4"/>
</radialGradient>
</defs>
</svg>
